<svg xmlns="http://www.w3.org/2000/svg" width="1200" height="320" viewBox="0 0 1200 320" role="img" aria-labelledby="title desc">
  <title id="title">ShadowOS</title>
  <desc id="desc">A personal assistant, built around my needs. An evolving personal project inside OpenClaw for organizing information, working with ideas and building everyday solutions.</desc>
  <rect width="1200" height="320" rx="10" fill="#171D23" />
  <g transform="translate(60 67) scale(1.333333)">
    <path d="M17 11h20a7 7 0 0 1 7 7v13a7 7 0 0 1-7 7H25l-8 6v-6a7 7 0 0 1-7-7V18a7 7 0 0 1 7-7Z" fill="#253831" />
    <path d="M11 4h20a7 7 0 0 1 7 7v13a7 7 0 0 1-7 7H19l-8 6v-6a7 7 0 0 1-7-7V11a7 7 0 0 1 7-7Z" fill="#171D23" stroke="#A6CDBE" stroke-width="1.6" stroke-linejoin="round" />
    <path d="M12 14h17M12 21h11" stroke="#A6CDBE" stroke-width="1.6" stroke-linecap="round" />
  </g>
  <g>
    <path d="M172.624 124.152Q166.504 124.152 162.004 121.92Q157.504 119.688 154.912 115.728Q152.32 111.768 151.888 106.512L159.88 106.008Q160.6 111.336 163.804 114.216Q167.008 117.096 172.768 117.096Q177.736 117.096 180.472 115.224Q183.208 113.352 183.208 109.752Q183.208 107.592 182.164 105.9Q181.12 104.208 178.204 102.804Q175.288 101.4 169.672 100.032Q163.552 98.592 159.88 96.756Q156.208 94.92 154.588 92.22Q152.968 89.52 152.968 85.56Q152.968 81.168 155.092 77.82Q157.216 74.472 161.176 72.6Q165.136 70.728 170.68 70.728Q176.512 70.728 180.688 72.888Q184.864 75.048 187.24 78.792Q189.616 82.536 190.192 87.36L182.2 87.792Q181.624 83.4 178.708 80.592Q175.792 77.784 170.536 77.784Q166.072 77.784 163.516 79.836Q160.96 81.888 160.96 85.272Q160.96 87.504 162.004 88.944Q163.048 90.384 165.748 91.5Q168.448 92.616 173.416 93.768Q180.04 95.28 183.928 97.476Q187.816 99.672 189.508 102.624Q191.2 105.576 191.2 109.32Q191.2 113.856 188.86 117.204Q186.52 120.552 182.344 122.352Q178.168 124.152 172.624 124.152ZM199.208 123V71.88H206.84V90.24Q208.352 86.928 211.34 85.38Q214.328 83.832 218.072 83.832Q224.336 83.832 227.648 87.9Q230.96 91.968 230.96 98.376V123H223.328V100.392Q223.328 90.24 216.056 90.24Q211.808 90.24 209.324 92.868Q206.84 95.496 206.84 100.536V123ZM249.696 123.864Q243.72 123.864 240.156 121.128Q236.592 118.392 236.592 113.424Q236.592 108.528 239.58 105.72Q242.568 102.912 248.832 101.688L262.008 99.168Q262.008 90.312 253.728 90.312Q250.056 90.312 247.968 91.968Q245.88 93.624 245.088 96.72L237.24 96.216Q238.32 90.456 242.604 87.144Q246.888 83.832 253.728 83.832Q261.504 83.832 265.572 87.972Q269.64 92.112 269.64 99.6V114.504Q269.64 115.872 270.108 116.412Q270.576 116.952 271.656 116.952H273.024V123Q272.016 123.216 270.216 123.216Q266.976 123.216 265.068 121.884Q263.16 120.552 262.656 117.312V117.096Q261.216 120.12 257.688 121.992Q254.16 123.864 249.696 123.864ZM250.92 117.816Q256.104 117.816 259.056 114.864Q262.008 111.912 262.008 107.376V104.928L250.776 107.088Q247.32 107.736 245.916 109.14Q244.512 110.544 244.512 112.704Q244.512 115.152 246.204 116.484Q247.896 117.816 250.92 117.816ZM290.752 123.864Q285.856 123.864 282.256 121.416Q278.656 118.968 276.712 114.468Q274.768 109.968 274.768 103.848Q274.768 97.728 276.712 93.228Q278.656 88.728 282.256 86.28Q285.856 83.832 290.752 83.832Q294.712 83.832 297.808 85.488Q300.904 87.144 302.488 90.096V71.88H310.12V123H302.992L302.776 117.24Q301.192 120.408 297.988 122.136Q294.784 123.864 290.752 123.864ZM292.768 117.24Q297.448 117.24 299.968 113.712Q302.488 110.184 302.488 103.848Q302.488 97.44 299.968 93.948Q297.448 90.456 292.768 90.456Q288.16 90.456 285.424 94.02Q282.688 97.584 282.688 103.848Q282.688 109.968 285.424 113.604Q288.16 117.24 292.768 117.24ZM333.968 123.864Q328.496 123.864 324.392 121.38Q320.288 118.896 318.056 114.432Q315.824 109.968 315.824 103.848Q315.824 97.728 318.056 93.264Q320.288 88.8 324.392 86.316Q328.496 83.832 333.968 83.832Q339.44 83.832 343.544 86.316Q347.648 88.8 349.88 93.264Q352.112 97.728 352.112 103.848Q352.112 109.968 349.88 114.432Q347.648 118.896 343.544 121.38Q339.44 123.864 333.968 123.864ZM333.968 117.24Q338.864 117.24 341.528 113.712Q344.192 110.184 344.192 103.848Q344.192 97.584 341.528 94.02Q338.864 90.456 333.968 90.456Q329.144 90.456 326.444 94.02Q323.744 97.584 323.744 103.848Q323.744 110.184 326.444 113.712Q329.144 117.24 333.968 117.24ZM364.512 123 352.848 84.696H360.84L369.048 114.648L377.472 84.696H384.672L393.096 114.648L401.376 84.696H409.368L397.704 123H389.136L381.072 95.64L373.008 123ZM434.872 124.152Q427.456 124.152 422.128 120.948Q416.8 117.744 413.92 111.768Q411.04 105.792 411.04 97.512Q411.04 89.232 413.92 83.22Q416.8 77.208 422.128 73.968Q427.456 70.728 434.872 70.728Q442.36 70.728 447.724 73.968Q453.088 77.208 455.932 83.22Q458.776 89.232 458.776 97.512Q458.776 105.792 455.932 111.768Q453.088 117.744 447.724 120.948Q442.36 124.152 434.872 124.152ZM434.872 117.024Q442.288 117.024 446.5 111.876Q450.712 106.728 450.712 97.512Q450.712 88.296 446.5 83.076Q442.288 77.856 434.872 77.856Q427.528 77.856 423.316 83.076Q419.104 88.296 419.104 97.512Q419.104 106.728 423.316 111.876Q427.528 117.024 434.872 117.024ZM484.568 124.152Q478.448 124.152 473.948 121.92Q469.448 119.688 466.856 115.728Q464.264 111.768 463.832 106.512L471.824 106.008Q472.544 111.336 475.748 114.216Q478.952 117.096 484.712 117.096Q489.68 117.096 492.416 115.224Q495.152 113.352 495.152 109.752Q495.152 107.592 494.108 105.9Q493.064 104.208 490.148 102.804Q487.232 101.4 481.616 100.032Q475.496 98.592 471.824 96.756Q468.152 94.92 466.532 92.22Q464.912 89.52 464.912 85.56Q464.912 81.168 467.036 77.82Q469.16 74.472 473.12 72.6Q477.08 70.728 482.624 70.728Q488.456 70.728 492.632 72.888Q496.808 75.048 499.184 78.792Q501.56 82.536 502.136 87.36L494.144 87.792Q493.568 83.4 490.652 80.592Q487.736 77.784 482.48 77.784Q478.016 77.784 475.46 79.836Q472.904 81.888 472.904 85.272Q472.904 87.504 473.948 88.944Q474.992 90.384 477.692 91.5Q480.392 92.616 485.36 93.768Q491.984 95.28 495.872 97.476Q499.76 99.672 501.452 102.624Q503.144 105.576 503.144 109.32Q503.144 113.856 500.804 117.204Q498.464 120.552 494.288 122.352Q490.112 124.152 484.568 124.152Z" fill="#EDF0F2" aria-label="ShadowOS" />
    <path d="M64.76 211 74.488 184.02H78.896L88.624 211H85.052L82.354 203.324H71.03L68.332 211ZM72.132 200.132H81.252L76.692 186.87ZM101.924 216.7V190.86H104.888L104.926 193.938Q105.838 192.19 107.453 191.297Q109.068 190.404 111.12 190.404Q114.122 190.404 116.041 191.886Q117.96 193.368 118.891 195.762Q119.822 198.156 119.822 200.93Q119.822 203.704 118.891 206.098Q117.96 208.492 116.041 209.974Q114.122 211.456 111.12 211.456Q109.144 211.456 107.529 210.62Q105.914 209.784 105.116 208.34V216.7ZM110.816 208.416Q113.438 208.416 114.958 206.44Q116.478 204.464 116.478 200.93Q116.478 197.396 114.958 195.42Q113.438 193.444 110.816 193.444Q108.194 193.444 106.655 195.325Q105.116 197.206 105.116 200.93Q105.116 204.616 106.636 206.516Q108.156 208.416 110.816 208.416ZM132.02 211.456Q129.17 211.456 127.099 210.164Q125.028 208.872 123.907 206.497Q122.786 204.122 122.786 200.93Q122.786 197.738 123.907 195.382Q125.028 193.026 127.061 191.715Q129.094 190.404 131.868 190.404Q134.49 190.404 136.504 191.639Q138.518 192.874 139.639 195.23Q140.76 197.586 140.76 200.968V201.918H126.13Q126.32 205.148 127.859 206.782Q129.398 208.416 132.02 208.416Q133.996 208.416 135.269 207.485Q136.542 206.554 137.036 205.034L140.456 205.3Q139.658 207.998 137.435 209.727Q135.212 211.456 132.02 211.456ZM126.13 199.106H137.264Q137.036 196.18 135.573 194.812Q134.11 193.444 131.868 193.444Q129.55 193.444 128.049 194.869Q126.548 196.294 126.13 199.106ZM145.092 211V190.86H147.904L148.018 194.584Q149.044 190.86 152.806 190.86H154.782V193.9H152.844Q148.284 193.9 148.284 198.84V211ZM165.308 211.456Q161.166 211.456 159 209.537Q156.834 207.618 156.606 204.654L159.95 204.426Q160.254 206.25 161.451 207.333Q162.648 208.416 165.308 208.416Q167.36 208.416 168.481 207.751Q169.602 207.086 169.602 205.604Q169.602 204.806 169.241 204.274Q168.88 203.742 167.816 203.343Q166.752 202.944 164.7 202.564Q161.888 202.032 160.292 201.234Q158.696 200.436 158.05 199.296Q157.404 198.156 157.404 196.56Q157.404 193.862 159.399 192.133Q161.394 190.404 165.042 190.404Q167.702 190.404 169.393 191.335Q171.084 192.266 171.958 193.748Q172.832 195.23 173.022 196.864L169.678 197.092Q169.526 195.648 168.481 194.546Q167.436 193.444 164.966 193.444Q162.8 193.444 161.774 194.28Q160.748 195.116 160.748 196.408Q160.748 197.89 161.698 198.593Q162.648 199.296 165.308 199.752Q168.272 200.246 169.944 201.006Q171.616 201.766 172.281 202.887Q172.946 204.008 172.946 205.604Q172.946 208.378 170.799 209.917Q168.652 211.456 165.308 211.456ZM185.22 211.456Q182.446 211.456 180.356 210.164Q178.266 208.872 177.126 206.497Q175.986 204.122 175.986 200.93Q175.986 197.7 177.126 195.344Q178.266 192.988 180.356 191.696Q182.446 190.404 185.22 190.404Q187.994 190.404 190.065 191.696Q192.136 192.988 193.276 195.344Q194.416 197.7 194.416 200.93Q194.416 204.122 193.276 206.497Q192.136 208.872 190.065 210.164Q187.994 211.456 185.22 211.456ZM185.22 208.416Q187.994 208.416 189.533 206.421Q191.072 204.426 191.072 200.93Q191.072 197.434 189.533 195.439Q187.994 193.444 185.22 193.444Q182.446 193.444 180.888 195.439Q179.33 197.434 179.33 200.93Q179.33 204.426 180.888 206.421Q182.446 208.416 185.22 208.416ZM198.748 211V190.86H201.674L201.75 194.47Q202.548 192.38 204.201 191.392Q205.854 190.404 207.944 190.404Q210.262 190.404 211.763 191.43Q213.264 192.456 214.005 194.185Q214.746 195.914 214.746 198.042V211H211.554V198.954Q211.554 196.142 210.547 194.679Q209.54 193.216 207.26 193.216Q204.942 193.216 203.441 194.679Q201.94 196.142 201.94 198.954V211ZM225.88 211.456Q222.764 211.456 220.921 210.012Q219.078 208.568 219.078 205.984Q219.078 203.4 220.598 201.918Q222.118 200.436 225.424 199.828L232.568 198.498Q232.568 193.444 227.78 193.444Q225.69 193.444 224.474 194.375Q223.258 195.306 222.802 197.054L219.42 196.788Q219.99 193.938 222.175 192.171Q224.36 190.404 227.78 190.404Q231.656 190.404 233.708 192.589Q235.76 194.774 235.76 198.612V206.934Q235.76 208.188 236.824 208.188H237.622V211Q237.166 211.076 236.406 211.076Q234.658 211.076 233.765 210.373Q232.872 209.67 232.644 208.074L232.606 207.884Q231.846 209.442 229.984 210.449Q228.122 211.456 225.88 211.456ZM226.184 208.644Q229.224 208.644 230.896 206.934Q232.568 205.224 232.568 202.716V201.272L226.032 202.488Q223.98 202.868 223.201 203.647Q222.422 204.426 222.422 205.68Q222.422 207.086 223.429 207.865Q224.436 208.644 226.184 208.644ZM244.956 211Q243.208 211 242.106 210.088Q241.004 209.176 241.004 207.2V184.02H244.196V206.934Q244.196 208.188 245.45 208.188H247.198V211ZM266.084 211.456Q262.968 211.456 261.125 210.012Q259.282 208.568 259.282 205.984Q259.282 203.4 260.802 201.918Q262.322 200.436 265.628 199.828L272.772 198.498Q272.772 193.444 267.984 193.444Q265.894 193.444 264.678 194.375Q263.462 195.306 263.006 197.054L259.624 196.788Q260.194 193.938 262.379 192.171Q264.564 190.404 267.984 190.404Q271.86 190.404 273.912 192.589Q275.964 194.774 275.964 198.612V206.934Q275.964 208.188 277.028 208.188H277.826V211Q277.37 211.076 276.61 211.076Q274.862 211.076 273.969 210.373Q273.076 209.67 272.848 208.074L272.81 207.884Q272.05 209.442 270.188 210.449Q268.326 211.456 266.084 211.456ZM266.388 208.644Q269.428 208.644 271.1 206.934Q272.772 205.224 272.772 202.716V201.272L266.236 202.488Q264.184 202.868 263.405 203.647Q262.626 204.426 262.626 205.68Q262.626 207.086 263.633 207.865Q264.64 208.644 266.388 208.644ZM288.694 211.456Q284.552 211.456 282.386 209.537Q280.22 207.618 279.992 204.654L283.336 204.426Q283.64 206.25 284.837 207.333Q286.034 208.416 288.694 208.416Q290.746 208.416 291.867 207.751Q292.988 207.086 292.988 205.604Q292.988 204.806 292.627 204.274Q292.266 203.742 291.202 203.343Q290.138 202.944 288.086 202.564Q285.274 202.032 283.678 201.234Q282.082 200.436 281.436 199.296Q280.79 198.156 280.79 196.56Q280.79 193.862 282.785 192.133Q284.78 190.404 288.428 190.404Q291.088 190.404 292.779 191.335Q294.47 192.266 295.344 193.748Q296.218 195.23 296.408 196.864L293.064 197.092Q292.912 195.648 291.867 194.546Q290.822 193.444 288.352 193.444Q286.186 193.444 285.16 194.28Q284.134 195.116 284.134 196.408Q284.134 197.89 285.084 198.593Q286.034 199.296 288.694 199.752Q291.658 200.246 293.33 201.006Q295.002 201.766 295.667 202.887Q296.332 204.008 296.332 205.604Q296.332 208.378 294.185 209.917Q292.038 211.456 288.694 211.456ZM308.074 211.456Q303.932 211.456 301.766 209.537Q299.6 207.618 299.372 204.654L302.716 204.426Q303.02 206.25 304.217 207.333Q305.414 208.416 308.074 208.416Q310.126 208.416 311.247 207.751Q312.368 207.086 312.368 205.604Q312.368 204.806 312.007 204.274Q311.646 203.742 310.582 203.343Q309.518 202.944 307.466 202.564Q304.654 202.032 303.058 201.234Q301.462 200.436 300.816 199.296Q300.17 198.156 300.17 196.56Q300.17 193.862 302.165 192.133Q304.16 190.404 307.808 190.404Q310.468 190.404 312.159 191.335Q313.85 192.266 314.724 193.748Q315.598 195.23 315.788 196.864L312.444 197.092Q312.292 195.648 311.247 194.546Q310.202 193.444 307.732 193.444Q305.566 193.444 304.54 194.28Q303.514 195.116 303.514 196.408Q303.514 197.89 304.464 198.593Q305.414 199.296 308.074 199.752Q311.038 200.246 312.71 201.006Q314.382 201.766 315.047 202.887Q315.712 204.008 315.712 205.604Q315.712 208.378 313.565 209.917Q311.418 211.456 308.074 211.456ZM320.12 211V190.86H323.312V211ZM320.044 187.706V183.982H323.388V187.706ZM336.346 211.456Q332.204 211.456 330.038 209.537Q327.872 207.618 327.644 204.654L330.988 204.426Q331.292 206.25 332.489 207.333Q333.686 208.416 336.346 208.416Q338.398 208.416 339.519 207.751Q340.64 207.086 340.64 205.604Q340.64 204.806 340.279 204.274Q339.918 203.742 338.854 203.343Q337.79 202.944 335.738 202.564Q332.926 202.032 331.33 201.234Q329.734 200.436 329.088 199.296Q328.442 198.156 328.442 196.56Q328.442 193.862 330.437 192.133Q332.432 190.404 336.08 190.404Q338.74 190.404 340.431 191.335Q342.122 192.266 342.996 193.748Q343.87 195.23 344.06 196.864L340.716 197.092Q340.564 195.648 339.519 194.546Q338.474 193.444 336.004 193.444Q333.838 193.444 332.812 194.28Q331.786 195.116 331.786 196.408Q331.786 197.89 332.736 198.593Q333.686 199.296 336.346 199.752Q339.31 200.246 340.982 201.006Q342.654 201.766 343.319 202.887Q343.984 204.008 343.984 205.604Q343.984 208.378 341.837 209.917Q339.69 211.456 336.346 211.456ZM355.004 211Q352.268 211 350.957 209.746Q349.646 208.492 349.646 205.832V193.672H346.682V190.86H349.646V186.148H352.838V190.86H358.196V193.672H352.838V205.756Q352.838 207.124 353.446 207.656Q354.054 208.188 355.308 208.188H358.196V211ZM367.582 211.456Q364.466 211.456 362.623 210.012Q360.78 208.568 360.78 205.984Q360.78 203.4 362.3 201.918Q363.82 200.436 367.126 199.828L374.27 198.498Q374.27 193.444 369.482 193.444Q367.392 193.444 366.176 194.375Q364.96 195.306 364.504 197.054L361.122 196.788Q361.692 193.938 363.877 192.171Q366.062 190.404 369.482 190.404Q373.358 190.404 375.41 192.589Q377.462 194.774 377.462 198.612V206.934Q377.462 208.188 378.526 208.188H379.324V211Q378.868 211.076 378.108 211.076Q376.36 211.076 375.467 210.373Q374.574 209.67 374.346 208.074L374.308 207.884Q373.548 209.442 371.686 210.449Q369.824 211.456 367.582 211.456ZM367.886 208.644Q370.926 208.644 372.598 206.934Q374.27 205.224 374.27 202.716V201.272L367.734 202.488Q365.682 202.868 364.903 203.647Q364.124 204.426 364.124 205.68Q364.124 207.086 365.131 207.865Q366.138 208.644 367.886 208.644ZM382.934 211V190.86H385.86L385.936 194.47Q386.734 192.38 388.387 191.392Q390.04 190.404 392.13 190.404Q394.448 190.404 395.949 191.43Q397.45 192.456 398.191 194.185Q398.932 195.914 398.932 198.042V211H395.74V198.954Q395.74 196.142 394.733 194.679Q393.726 193.216 391.446 193.216Q389.128 193.216 387.627 194.679Q386.126 196.142 386.126 198.954V211ZM410.864 211Q408.128 211 406.817 209.746Q405.506 208.492 405.506 205.832V193.672H402.542V190.86H405.506V186.148H408.698V190.86H414.056V193.672H408.698V205.756Q408.698 207.124 409.306 207.656Q409.914 208.188 411.168 208.188H414.056V211ZM418.084 216.928 419.908 211H417.97V206.706H422.264V210.468L419.984 216.928Z" fill="#BBC5CC" aria-label="A personal assistant," />
    <path d="M76.274 261.456Q74.184 261.456 72.55 260.525Q70.916 259.594 70.042 257.96L69.928 261H67.04V234.02H70.232V243.672Q70.992 242.418 72.588 241.411Q74.184 240.404 76.274 240.404Q78.934 240.404 80.872 241.696Q82.81 242.988 83.874 245.344Q84.938 247.7 84.938 250.93Q84.938 254.16 83.874 256.516Q82.81 258.872 80.872 260.164Q78.934 261.456 76.274 261.456ZM76.084 258.416Q78.63 258.416 80.112 256.402Q81.594 254.388 81.594 250.93Q81.594 247.434 80.112 245.439Q78.63 243.444 76.16 243.444Q73.386 243.444 71.809 245.439Q70.232 247.434 70.232 250.93Q70.232 254.388 71.79 256.402Q73.348 258.416 76.084 258.416ZM95.882 261.456Q92.88 261.456 91.075 259.423Q89.27 257.39 89.27 253.818V240.86H92.462V252.944Q92.462 255.87 93.507 257.257Q94.552 258.644 96.718 258.644Q99.112 258.644 100.48 257.105Q101.848 255.566 101.848 252.868V240.86H105.04V261H102V257.732Q100.328 261.456 95.882 261.456ZM110.55 261V240.86H113.742V261ZM110.474 237.706V233.982H113.818V237.706ZM123.394 261Q121.646 261 120.544 260.088Q119.442 259.176 119.442 257.2V234.02H122.634V256.934Q122.634 258.188 123.888 258.188H125.636V261ZM135.06 261Q132.324 261 131.013 259.746Q129.702 258.492 129.702 255.832V243.672H126.738V240.86H129.702V236.148H132.894V240.86H138.252V243.672H132.894V255.756Q132.894 257.124 133.502 257.656Q134.11 258.188 135.364 258.188H138.252V261ZM157.518 261.456Q154.402 261.456 152.559 260.012Q150.716 258.568 150.716 255.984Q150.716 253.4 152.236 251.918Q153.756 250.436 157.062 249.828L164.206 248.498Q164.206 243.444 159.418 243.444Q157.328 243.444 156.112 244.375Q154.896 245.306 154.44 247.054L151.058 246.788Q151.628 243.938 153.813 242.171Q155.998 240.404 159.418 240.404Q163.294 240.404 165.346 242.589Q167.398 244.774 167.398 248.612V256.934Q167.398 258.188 168.462 258.188H169.26V261Q168.804 261.076 168.044 261.076Q166.296 261.076 165.403 260.373Q164.51 259.67 164.282 258.074L164.244 257.884Q163.484 259.442 161.622 260.449Q159.76 261.456 157.518 261.456ZM157.822 258.644Q160.862 258.644 162.534 256.934Q164.206 255.224 164.206 252.716V251.272L157.67 252.488Q155.618 252.868 154.839 253.647Q154.06 254.426 154.06 255.68Q154.06 257.086 155.067 257.865Q156.074 258.644 157.822 258.644ZM172.87 261V240.86H175.682L175.796 244.584Q176.822 240.86 180.584 240.86H182.56V243.9H180.622Q176.062 243.9 176.062 248.84V261ZM193.618 261.456Q190.844 261.456 188.754 260.164Q186.664 258.872 185.524 256.497Q184.384 254.122 184.384 250.93Q184.384 247.7 185.524 245.344Q186.664 242.988 188.754 241.696Q190.844 240.404 193.618 240.404Q196.392 240.404 198.463 241.696Q200.534 242.988 201.674 245.344Q202.814 247.7 202.814 250.93Q202.814 254.122 201.674 256.497Q200.534 258.872 198.463 260.164Q196.392 261.456 193.618 261.456ZM193.618 258.416Q196.392 258.416 197.931 256.421Q199.47 254.426 199.47 250.93Q199.47 247.434 197.931 245.439Q196.392 243.444 193.618 243.444Q190.844 243.444 189.286 245.439Q187.728 247.434 187.728 250.93Q187.728 254.426 189.286 256.421Q190.844 258.416 193.618 258.416ZM213.758 261.456Q210.756 261.456 208.951 259.423Q207.146 257.39 207.146 253.818V240.86H210.338V252.944Q210.338 255.87 211.383 257.257Q212.428 258.644 214.594 258.644Q216.988 258.644 218.356 257.105Q219.724 255.566 219.724 252.868V240.86H222.916V261H219.876V257.732Q218.204 261.456 213.758 261.456ZM228.996 261V240.86H231.922L231.998 244.47Q232.796 242.38 234.449 241.392Q236.102 240.404 238.192 240.404Q240.51 240.404 242.011 241.43Q243.512 242.456 244.253 244.185Q244.994 245.914 244.994 248.042V261H241.802V248.954Q241.802 246.142 240.795 244.679Q239.788 243.216 237.508 243.216Q235.19 243.216 233.689 244.679Q232.188 246.142 232.188 248.954V261ZM257.762 261.456Q255.14 261.456 253.221 260.164Q251.302 258.872 250.276 256.516Q249.25 254.16 249.25 250.93Q249.25 247.7 250.276 245.344Q251.302 242.988 253.221 241.696Q255.14 240.404 257.762 240.404Q259.776 240.404 261.448 241.259Q263.12 242.114 263.956 243.672V234.02H267.148V261H264.26L264.146 257.96Q263.31 259.594 261.6 260.525Q259.89 261.456 257.762 261.456ZM258.408 258.416Q261.106 258.416 262.531 256.402Q263.956 254.388 263.956 250.93Q263.956 247.434 262.531 245.439Q261.106 243.444 258.408 243.444Q255.748 243.444 254.171 245.439Q252.594 247.434 252.594 250.93Q252.594 254.388 254.171 256.402Q255.748 258.416 258.408 258.416ZM282.728 261V240.86H285.654L285.73 244.394Q286.49 242.532 287.972 241.468Q289.454 240.404 291.392 240.404Q293.672 240.404 295.23 241.506Q296.788 242.608 297.434 244.622Q298.08 242.608 299.6 241.506Q301.12 240.404 303.324 240.404Q306.554 240.404 308.264 242.399Q309.974 244.394 309.974 248.042V261H306.782V248.726Q306.782 243.216 302.564 243.216Q300.474 243.216 299.201 244.736Q297.928 246.256 297.928 248.954V261H294.736V248.954Q294.736 246.256 293.786 244.736Q292.836 243.216 290.594 243.216Q288.504 243.216 287.212 244.736Q285.92 246.256 285.92 248.954V261ZM315.636 266.7V263.888H317.954Q319.018 263.888 319.531 263.565Q320.044 263.242 320.31 262.52L321.032 260.62H319.93L312.558 240.86H316.054L322.058 257.656L327.796 240.86H331.292L323.122 263.546Q322.552 265.18 321.412 265.94Q320.272 266.7 318.258 266.7ZM344.668 261V240.86H347.594L347.67 244.47Q348.468 242.38 350.121 241.392Q351.774 240.404 353.864 240.404Q356.182 240.404 357.683 241.43Q359.184 242.456 359.925 244.185Q360.666 245.914 360.666 248.042V261H357.474V248.954Q357.474 246.142 356.467 244.679Q355.46 243.216 353.18 243.216Q350.862 243.216 349.361 244.679Q347.86 246.142 347.86 248.954V261ZM374.156 261.456Q371.306 261.456 369.235 260.164Q367.164 258.872 366.043 256.497Q364.922 254.122 364.922 250.93Q364.922 247.738 366.043 245.382Q367.164 243.026 369.197 241.715Q371.23 240.404 374.004 240.404Q376.626 240.404 378.64 241.639Q380.654 242.874 381.775 245.23Q382.896 247.586 382.896 250.968V251.918H368.266Q368.456 255.148 369.995 256.782Q371.534 258.416 374.156 258.416Q376.132 258.416 377.405 257.485Q378.678 256.554 379.172 255.034L382.592 255.3Q381.794 257.998 379.571 259.727Q377.348 261.456 374.156 261.456ZM368.266 249.106H379.4Q379.172 246.18 377.709 244.812Q376.246 243.444 374.004 243.444Q371.686 243.444 370.185 244.869Q368.684 246.294 368.266 249.106ZM395.094 261.456Q392.244 261.456 390.173 260.164Q388.102 258.872 386.981 256.497Q385.86 254.122 385.86 250.93Q385.86 247.738 386.981 245.382Q388.102 243.026 390.135 241.715Q392.168 240.404 394.942 240.404Q397.564 240.404 399.578 241.639Q401.592 242.874 402.713 245.23Q403.834 247.586 403.834 250.968V251.918H389.204Q389.394 255.148 390.933 256.782Q392.472 258.416 395.094 258.416Q397.07 258.416 398.343 257.485Q399.616 256.554 400.11 255.034L403.53 255.3Q402.732 257.998 400.509 259.727Q398.286 261.456 395.094 261.456ZM389.204 249.106H400.338Q400.11 246.18 398.647 244.812Q397.184 243.444 394.942 243.444Q392.624 243.444 391.123 244.869Q389.622 246.294 389.204 249.106ZM415.31 261.456Q412.688 261.456 410.769 260.164Q408.85 258.872 407.824 256.516Q406.798 254.16 406.798 250.93Q406.798 247.7 407.824 245.344Q408.85 242.988 410.769 241.696Q412.688 240.404 415.31 240.404Q417.324 240.404 418.996 241.259Q420.668 242.114 421.504 243.672V234.02H424.696V261H421.808L421.694 257.96Q420.858 259.594 419.148 260.525Q417.438 261.456 415.31 261.456ZM415.956 258.416Q418.654 258.416 420.079 256.402Q421.504 254.388 421.504 250.93Q421.504 247.434 420.079 245.439Q418.654 243.444 415.956 243.444Q413.296 243.444 411.719 245.439Q410.142 247.434 410.142 250.93Q410.142 254.388 411.719 256.402Q413.296 258.416 415.956 258.416ZM437.73 261.456Q433.588 261.456 431.422 259.537Q429.256 257.618 429.028 254.654L432.372 254.426Q432.676 256.25 433.873 257.333Q435.07 258.416 437.73 258.416Q439.782 258.416 440.903 257.751Q442.024 257.086 442.024 255.604Q442.024 254.806 441.663 254.274Q441.302 253.742 440.238 253.343Q439.174 252.944 437.122 252.564Q434.31 252.032 432.714 251.234Q431.118 250.436 430.472 249.296Q429.826 248.156 429.826 246.56Q429.826 243.862 431.821 242.133Q433.816 240.404 437.464 240.404Q440.124 240.404 441.815 241.335Q443.506 242.266 444.38 243.748Q445.254 245.23 445.444 246.864L442.1 247.092Q441.948 245.648 440.903 244.546Q439.858 243.444 437.388 243.444Q435.222 243.444 434.196 244.28Q433.17 245.116 433.17 246.408Q433.17 247.89 434.12 248.593Q435.07 249.296 437.73 249.752Q440.694 250.246 442.366 251.006Q444.038 251.766 444.703 252.887Q445.368 254.008 445.368 255.604Q445.368 258.378 443.221 259.917Q441.074 261.456 437.73 261.456ZM448.788 261V256.706H453.082V261Z" fill="#BBC5CC" aria-label="built around my needs." />
  </g>
</svg>
