<svg xmlns="http://www.w3.org/2000/svg" width="720" height="999" viewBox="0 0 720 999" role="img" aria-labelledby="title desc">
<title id="title">Groceries — illustrated chat</title>
<desc id="desc">You · video + speech: Coloca esse iogurte, o leite e os ovos no Costco. Se não tiver esse iogurte, pode ser o natural. Shadow: Adicionei os três. Anotei iogurte natural como alternativa. You · voice note: Peguei o leite. Shadow: Leite comprado. Faltam o iogurte e os ovos. You: Na verdade, ainda não peguei. Shadow: Coloquei o leite de volta na lista.</desc>
<rect width="720" height="999" rx="24" fill="#141D24"/>
<rect x="0.5" y="0.5" width="719" height="998" rx="23.5" fill="none" stroke="#31404A"/>
<g font-family="Geist" font-weight="400">
<circle cx="66" cy="61" r="26" fill="#263D39"/>
<text x="56" y="71" font-size="29" font-weight="500" fill="#B8D9CC">S</text>
<text x="108" y="57" font-size="34" font-weight="500" fill="#E7ECEF">Shadow</text>
<text x="108" y="90" font-size="22" font-weight="400" fill="#AAB8C2">Groceries · In use</text>
<path d="M32 118H688" stroke="#2B3842"/>
<rect x="263.63" y="142" width="416.37" height="201" rx="20" fill="#263D39"/>
<path d="M663 323 L688 343 L662 339Z" fill="#263D39"/>
<text x="287.63" y="170" font-size="20" font-weight="400" fill="#B0C5BE">You · video + speech</text>
<text x="287.63" y="207" font-size="30" font-weight="400" fill="#E7ECEF">Coloca esse iogurte, o leite</text>
<text x="287.63" y="246" font-size="30" font-weight="400" fill="#E7ECEF">e os ovos no Costco.</text>
<text x="287.63" y="285" font-size="30" font-weight="400" fill="#E7ECEF">Se não tiver esse iogurte,</text>
<text x="287.63" y="324" font-size="30" font-weight="400" fill="#E7ECEF">pode ser o natural.</text>
<rect x="40.00" y="361" width="480.30" height="123" rx="20" fill="#222D36"/>
<path d="M57 464 L32 484 L58 480Z" fill="#222D36"/>
<text x="64" y="389" font-size="20" font-weight="400" fill="#B8D9CC">Shadow</text>
<text x="64" y="426" font-size="30" font-weight="400" fill="#E7ECEF">Adicionei os três. Anotei iogurte</text>
<text x="64" y="465" font-size="30" font-weight="400" fill="#E7ECEF">natural como alternativa.</text>
<rect x="435.00" y="502" width="245.00" height="84" rx="20" fill="#263D39"/>
<path d="M663 566 L688 586 L662 582Z" fill="#263D39"/>
<text x="459" y="530" font-size="20" font-weight="400" fill="#B0C5BE">You · voice note</text>
<text x="459" y="567" font-size="30" font-weight="400" fill="#E7ECEF">Peguei o leite.</text>
<rect x="40.00" y="604" width="413.25" height="123" rx="20" fill="#222D36"/>
<path d="M57 707 L32 727 L58 723Z" fill="#222D36"/>
<text x="64" y="632" font-size="20" font-weight="400" fill="#B8D9CC">Shadow</text>
<text x="64" y="669" font-size="30" font-weight="400" fill="#E7ECEF">Leite comprado.</text>
<text x="64" y="708" font-size="30" font-weight="400" fill="#E7ECEF">Faltam o iogurte e os ovos.</text>
<rect x="222.83" y="745" width="457.17" height="84" rx="20" fill="#263D39"/>
<path d="M663 809 L688 829 L662 825Z" fill="#263D39"/>
<text x="246.83" y="773" font-size="20" font-weight="400" fill="#B0C5BE">You</text>
<text x="246.83" y="810" font-size="30" font-weight="400" fill="#E7ECEF">Na verdade, ainda não peguei.</text>
<rect x="40.00" y="847" width="489.03" height="84" rx="20" fill="#222D36"/>
<path d="M57 911 L32 931 L58 927Z" fill="#222D36"/>
<text x="64" y="875" font-size="20" font-weight="400" fill="#B8D9CC">Shadow</text>
<text x="64" y="912" font-size="30" font-weight="400" fill="#E7ECEF">Coloquei o leite de volta na lista.</text>
<text x="40" y="974" font-size="21" font-weight="400" fill="#9EADB8">Illustrative conversation · fictional details</text>
</g>
</svg>
