<svg xmlns="http://www.w3.org/2000/svg" width="720" height="857" viewBox="0 0 720 857" role="img" aria-labelledby="title desc">
<title id="title">Doctor — illustrated chat</title>
<desc id="desc">You · voice note: Find a dermatologist within 10 miles of 10001. Weekday mornings. My plan is ExamplePlan. Shadow: Dermatology, 10 miles, weekday mornings, ExamplePlan. Shall I search? You: Yes, search. Shadow: I’ll send the options when they’re ready.</desc>
<rect width="720" height="857" rx="24" fill="#141D24"/>
<rect x="0.5" y="0.5" width="719" height="856" rx="23.5" fill="none" stroke="#31404A"/>
<g font-family="Geist" font-weight="400">
<circle cx="66" cy="61" r="26" fill="#263D39"/>
<text x="56" y="71" font-size="29" font-weight="500" fill="#B8D9CC">S</text>
<text x="108" y="57" font-size="34" font-weight="500" fill="#E7ECEF">Shadow</text>
<text x="108" y="90" font-size="22" font-weight="400" fill="#AAB8C2">Doctor · Early testing</text>
<path d="M32 118H688" stroke="#2B3842"/>
<rect x="158.75" y="142" width="521.25" height="224" rx="20" fill="#263D39"/>
<path d="M663 346 L688 366 L662 362Z" fill="#263D39"/>
<text x="182.75" y="170" font-size="20" font-weight="400" fill="#B0C5BE">You · voice note</text>
<path d="M188.75 189L188.75 220L211.75 204.5Z" fill="#B8D9CC"/>
<path d="M233.75 199.0V211.0" stroke="#B8D9CC" stroke-width="3" stroke-linecap="round"/>
<path d="M248.69 194.0V216.0" stroke="#B8D9CC" stroke-width="3" stroke-linecap="round"/>
<path d="M263.62 188.5V221.5" stroke="#B8D9CC" stroke-width="3" stroke-linecap="round"/>
<path d="M278.56 196.5V213.5" stroke="#B8D9CC" stroke-width="3" stroke-linecap="round"/>
<path d="M293.49 191.5V218.5" stroke="#B8D9CC" stroke-width="3" stroke-linecap="round"/>
<path d="M308.43 185.5V224.5" stroke="#B8D9CC" stroke-width="3" stroke-linecap="round"/>
<path d="M323.36 195.0V215.0" stroke="#B8D9CC" stroke-width="3" stroke-linecap="round"/>
<path d="M338.30 190.0V220.0" stroke="#B8D9CC" stroke-width="3" stroke-linecap="round"/>
<path d="M353.23 198.0V212.0" stroke="#B8D9CC" stroke-width="3" stroke-linecap="round"/>
<path d="M368.17 199.0V211.0" stroke="#B8D9CC" stroke-width="3" stroke-linecap="round"/>
<path d="M383.10 194.0V216.0" stroke="#B8D9CC" stroke-width="3" stroke-linecap="round"/>
<path d="M398.04 188.5V221.5" stroke="#B8D9CC" stroke-width="3" stroke-linecap="round"/>
<path d="M412.97 196.5V213.5" stroke="#B8D9CC" stroke-width="3" stroke-linecap="round"/>
<path d="M427.91 191.5V218.5" stroke="#B8D9CC" stroke-width="3" stroke-linecap="round"/>
<path d="M442.84 185.5V224.5" stroke="#B8D9CC" stroke-width="3" stroke-linecap="round"/>
<path d="M457.78 195.0V215.0" stroke="#B8D9CC" stroke-width="3" stroke-linecap="round"/>
<path d="M472.71 190.0V220.0" stroke="#B8D9CC" stroke-width="3" stroke-linecap="round"/>
<path d="M487.65 198.0V212.0" stroke="#B8D9CC" stroke-width="3" stroke-linecap="round"/>
<path d="M502.58 199.0V211.0" stroke="#B8D9CC" stroke-width="3" stroke-linecap="round"/>
<path d="M517.52 194.0V216.0" stroke="#B8D9CC" stroke-width="3" stroke-linecap="round"/>
<path d="M532.45 188.5V221.5" stroke="#B8D9CC" stroke-width="3" stroke-linecap="round"/>
<path d="M547.39 196.5V213.5" stroke="#B8D9CC" stroke-width="3" stroke-linecap="round"/>
<path d="M562.32 191.5V218.5" stroke="#B8D9CC" stroke-width="3" stroke-linecap="round"/>
<path d="M577.26 185.5V224.5" stroke="#B8D9CC" stroke-width="3" stroke-linecap="round"/>
<path d="M592.19 195.0V215.0" stroke="#B8D9CC" stroke-width="3" stroke-linecap="round"/>
<path d="M607.13 190.0V220.0" stroke="#B8D9CC" stroke-width="3" stroke-linecap="round"/>
<path d="M622.06 198.0V212.0" stroke="#B8D9CC" stroke-width="3" stroke-linecap="round"/>
<path d="M637.00 199.0V211.0" stroke="#B8D9CC" stroke-width="3" stroke-linecap="round"/>
<text x="182.75" y="269" font-size="30" font-weight="400" fill="#E7ECEF">Find a dermatologist within</text>
<text x="182.75" y="308" font-size="30" font-weight="400" fill="#E7ECEF">10 miles of 10001. Weekday</text>
<text x="182.75" y="347" font-size="30" font-weight="400" fill="#E7ECEF">mornings. My plan is ExamplePlan.</text>
<rect x="40.00" y="384" width="482.85" height="162" rx="20" fill="#222D36"/>
<path d="M57 526 L32 546 L58 542Z" fill="#222D36"/>
<text x="64" y="412" font-size="20" font-weight="400" fill="#B8D9CC">Shadow</text>
<text x="64" y="449" font-size="30" font-weight="400" fill="#E7ECEF">Dermatology, 10 miles, weekday</text>
<text x="64" y="488" font-size="30" font-weight="400" fill="#E7ECEF">mornings, ExamplePlan.</text>
<text x="64" y="527" font-size="30" font-weight="400" fill="#E7ECEF">Shall I search?</text>
<rect x="435.00" y="564" width="245.00" height="84" rx="20" fill="#263D39"/>
<path d="M663 628 L688 648 L662 644Z" fill="#263D39"/>
<text x="459" y="592" font-size="20" font-weight="400" fill="#B0C5BE">You</text>
<text x="459" y="629" font-size="30" font-weight="400" fill="#E7ECEF">Yes, search.</text>
<rect x="40.00" y="666" width="314.04" height="123" rx="20" fill="#222D36"/>
<path d="M57 769 L32 789 L58 785Z" fill="#222D36"/>
<text x="64" y="694" font-size="20" font-weight="400" fill="#B8D9CC">Shadow</text>
<text x="64" y="731" font-size="30" font-weight="400" fill="#E7ECEF">I’ll send the options</text>
<text x="64" y="770" font-size="30" font-weight="400" fill="#E7ECEF">when they’re ready.</text>
<text x="40" y="832" font-size="21" font-weight="400" fill="#9EADB8">Illustrated media · fictional dialogue</text>
</g>
</svg>
